{"title":"Old.School.S01E04.PDTV.x264-W4F","uid":10351945,"size":500469765,"categoryP":"video","categoryS":"tv_shows","magnet":"?xt=urn:btih:4acd9b3016e6c84890cc5aff46690a213ff6e6be&amp;dn=Old.School.S01E04.PDTV.x264-W4F&amp;tr=udp%3A%2F%2Ftracker.openbittorrent.com%3A80&amp;tr=udp%3A%2F%2Fopen.demonii.com%3A1337&amp;tr=udp%3A%2F%2Ftracker.coppersurfer.tk%3A6969&amp;tr=udp%3A%2F%2Fexodus.desync.com%3A6969","seeders":2,"leechers":1,"uploader":"FiNCH","files":-1,"time":1402681517,"description":"*******************************************************************************\n                     Old.School.S01E04.PDTV.x264-W4F\n*******************************************************************************\n\n-------------------------------------------------------------------------------\nGeneral Information\n-------------------------------------------------------------------------------\n\nFormat                                   : MPEG-4\nFormat profile                           : Base Media\nCodec ID                                 : isom\nFile size                                : 477 MiB\nDuration                                 : 53mn 59s\nOverall bit rate mode                    : Variable\nOverall bit rate                         : 1 236 Kbps\nEncoded date                             : UTC 2014-06-13 11:43:59\nTagged date                              : UTC 2014-06-13 11:43:59\n\nVideo\nID                                       : 1\nFormat                                   : AVC\nFormat/Info                              : Advanced Video Codec\nFormat profile                           : &lt;a class=&quot;__cf_email__&quot; href=&quot;/cdn-cgi/l/email-protection&quot; data-cfemail=&quot;b6fedfd1def6fa859887&quot;&gt;[email&amp;#160;protected]&lt;/a&gt;&lt;script cf-hash='f9e31' type=&quot;text/javascript&quot;&gt;\n/* &lt;![CDATA[ */!function(){try{var t=&quot;currentScript&quot;in document?document.currentScript:function(){for(var t=document.getElementsByTagName(&quot;script&quot;),e=t.length;e--;)if(t[e].getAttribute(&quot;cf-hash&quot;))return t[e]}();if(t&amp;&amp;t.previousSibling){var e,r,n,i,c=t.previousSibling,a=c.getAttribute(&quot;data-cfemail&quot;);if(a){for(e=&quot;&quot;,r=parseInt(a.substr(0,2),16),n=2;a.length-n;n+=2)i=parseInt(a.substr(n,2),16)^r,e+=String.fromCharCode(i);e=document.createTextNode(e),c.parentNode.replaceChild(e,c)}}}catch(u){}}();/* ]]&gt; */&lt;/script&gt;\nFormat settings, CABAC                   : Yes\nFormat settings, ReFrames                : 5 frames\nCodec ID                                 : avc1\nCodec ID/Info                            : Advanced Video Coding\nDuration                                 : 53mn 59s\nBit rate                                 : 1 093 Kbps\nMaximum bit rate                         : 6 403 Kbps\nWidth                                    : 716 pixels\nHeight                                   : 404 pixels\nDisplay aspect ratio                     : 16:9\nFrame rate mode                          : Constant\nFrame rate                               : 25.000 fps\nColor space                              : YUV\nChroma subsampling                       : 4:2:0\nBit depth                                : 8 bits\nScan type                                : Progressive\nBits/(Pixel*Frame)                       : 0.151\nStream size                              : 422 MiB (88%)\nWriting library                          : x264 core 142 r2431 ac76440\n\nAudio\nID                                       : 2\nFormat                                   : AAC\nFormat/Info                              : Advanced Audio Codec\nFormat profile                           : LC\nCodec ID                                 : 40\nDuration                                 : 53mn 59s\nBit rate mode                            : Variable\nBit rate                                 : 139 Kbps\nMaximum bit rate                         : 177 Kbps\nChannel(s)                               : 2 channels\nChannel positions                        : Front: L R\nSampling rate                            : 48.0 KHz\nCompression mode                         : Lossy\nStream size                              : 53.5 MiB (11%)\nEncoded date                             : UTC 2014-06-13 11:44:00\nTagged date                              : UTC 2014-06-13 11:44:00\n\n\n-------------------------------------------------------------------------------\n-------------------------------------------------------------------------------\n\nSCREENS\n &lt;a href=&quot;\nhttp://postimg.org/image/t9cuhzl21/&quot; rel=&quot;nofollow&quot; target=&quot;_NEW&quot;&gt;\nhttp://postimg.org/image/t9cuhzl21/&lt;/a&gt; &lt;a href=&quot;\nhttp://postimg.org/image/m7ewvshg9/&quot; rel=&quot;nofollow&quot; target=&quot;_NEW&quot;&gt;\nhttp://postimg.org/image/m7ewvshg9/&lt;/a&gt; &lt;a href=&quot;\nhttp://postimg.org/image/snnvlvpzt/&quot; rel=&quot;nofollow&quot; target=&quot;_NEW&quot;&gt;\nhttp://postimg.org/image/snnvlvpzt/&lt;/a&gt; &lt;a href=&quot;\nhttp://postimg.org/image/4in6465p5/&quot; rel=&quot;nofollow&quot; target=&quot;_NEW&quot;&gt;\nhttp://postimg.org/image/4in6465p5/&lt;/a&gt; &lt;a href=&quot;\nhttp://postimg.org/image/ev9gq8z89/&quot; rel=&quot;nofollow&quot; target=&quot;_NEW&quot;&gt;\nhttp://postimg.org/image/ev9gq8z89/&lt;/a&gt;\n","torrent":{"xt":"urn:btih:4acd9b3016e6c84890cc5aff46690a213ff6e6be","amp;dn":"Old.School.S01E04.PDTV.x264-W4F","amp;tr":["udp%3A%2F%2Ftracker.openbittorrent.com%3A80","udp%3A%2F%2Fopen.demonii.com%3A1337","udp%3A%2F%2Ftracker.coppersurfer.tk%3A6969","udp%3A%2F%2Fexodus.desync.com%3A6969"],"infoHash":"4acd9b3016e6c84890cc5aff46690a213ff6e6be","infoHashBuffer":{"type":"Buffer","data":[74,205,155,48,22,230,200,72,144,204,90,255,70,105,10,33,63,246,230,190]},"announce":[],"urlList":[]}}